<svg xmlns="http://www.w3.org/2000/svg" width="1400" height="340" viewBox="0 0 1400 340" role="img" aria-labelledby="title desc">
  <title id="title">Java Audit Lab</title>
  <desc id="desc">Open-source evidence-driven Java security review workbench</desc>
  <defs>
    <linearGradient id="shield" x1="0" y1="0" x2="1" y2="1">
      <stop stop-color="#0ea5e9"/>
      <stop offset="1" stop-color="#6366f1"/>
    </linearGradient>
    <linearGradient id="check" x1="0" y1="0" x2="1" y2="1">
      <stop stop-color="#67e8f9"/>
      <stop offset="1" stop-color="#c4b5fd"/>
    </linearGradient>
  </defs>
  <rect width="1400" height="340" rx="22" fill="#ffffff"/>
  <path d="M700 64v212" stroke="#e2e8f0" stroke-width="2"/>
  <g transform="translate(74 78)">
    <path d="M82 0 150 25v56c0 61-36 102-68 118C50 183 14 142 14 81V25Z" fill="url(#shield)"/>
    <path d="m47 77 24 24 47-53" fill="none" stroke="#fff" stroke-width="13" stroke-linecap="round" stroke-linejoin="round"/>
    <path d="M52 137h60M64 160h36" stroke="url(#check)" stroke-width="7" stroke-linecap="round"/>
  </g>
  <g font-family="Inter,Segoe UI,Arial,sans-serif">
    <text x="256" y="145" fill="#0f172a" font-size="57" font-weight="800" letter-spacing="-2">java</text>
    <text x="367" y="145" fill="#2563eb" font-size="57" font-weight="800" letter-spacing="-2">audit</text>
    <text x="505" y="145" fill="#f97316" font-size="57" font-weight="800" letter-spacing="-2">lab</text>
    <text x="259" y="187" fill="#64748b" font-size="18" font-weight="650" letter-spacing="2.4">EVIDENCE-DRIVEN SECURITY REVIEW</text>
    <g transform="translate(258 220)">
      <rect width="108" height="34" rx="17" fill="#eff6ff"/>
      <circle cx="20" cy="17" r="5" fill="#2563eb"/>
      <text x="34" y="22" fill="#1e40af" font-size="14" font-weight="700">Local first</text>
      <rect x="120" width="126" height="34" rx="17" fill="#fff7ed"/>
      <circle cx="140" cy="17" r="5" fill="#f97316"/>
      <text x="154" y="22" fill="#9a3412" font-size="14" font-weight="700">Human review</text>
    </g>
    <text x="792" y="116" fill="#64748b" font-size="21" font-weight="600" letter-spacing="5">YOUR OPEN-SOURCE</text>
    <text x="792" y="166" font-size="32" font-weight="800"><tspan fill="#2563eb">Java security review</tspan><tspan fill="#0f172a"> workbench.</tspan></text>
    <text x="792" y="218" font-size="24" font-weight="700"><tspan fill="#0f172a">From scanner findings </tspan><tspan fill="#f97316">to evidence you can verify.</tspan></text>
    <text x="792" y="260" fill="#64748b" font-size="17">Learn · inspect · decide · verify</text>
  </g>
</svg>
